<svg width="24" height="24" viewBox="0 0 24 24" fill="none" xmlns="http://www.w3.org/2000/svg">
<path fill-rule="evenodd" clip-rule="evenodd" d="M17 12V22H22V12H17ZM7 22H2V12H7V22Z" fill="white" fill-opacity="0.4"/>
<path d="M13.7113 12C13.7109 12 13.7109 12.0004 13.7109 12.0004L15.0445 15.3332H9L10.3336 12.0004C10.3336 12.0004 10.3336 12 10.3332 12H7V22H17V12H13.7113Z" fill="white"/>
<path d="M17 2C14.2387 2 12 4.2387 12 7V8.3367C12.0074 8.3363 12.0148 8.3332 12.0223 8.3332C12.4473 8.3332 12.8629 8.4551 13.2207 8.6844C13.5785 8.9133 13.8633 9.2402 14.041 9.6262C14.2188 10.0121 14.282 10.4406 14.2234 10.8613C14.1648 11.282 13.9871 11.6773 13.7113 12H17C19.7613 12 22 9.7613 22 7C22 4.2387 19.7613 2 17 2Z" fill="white"/>
<path d="M9.82109 10.8613C9.7625 10.4406 9.82617 10.0121 10.0039 9.6262C10.1816 9.2402 10.466 8.9133 10.8238 8.6844C11.175 8.4594 11.5832 8.3406 12 8.3367V7C12 4.2387 9.76133 2 7 2C4.23867 2 2 4.2387 2 7C2 9.7613 4.23867 12 7 12H10.3332C10.0574 11.6773 9.87969 11.282 9.82109 10.8613Z" fill="white"/>
</svg>
