<svg width="46" height="46" viewBox="0 0 46 46" fill="none" xmlns="http://www.w3.org/2000/svg">
<circle cx="23" cy="23" r="23" fill="black" fill-opacity="0.06"/>
<path d="M23.0002 24.4374C21.1794 24.4374 19.5502 23.7666 18.3044 22.5207C17.0586 21.2749 16.3877 19.7416 16.3877 17.8249C16.3877 15.9082 17.0586 14.3749 18.3044 13.1291C19.5502 11.8832 21.0836 11.2124 23.0002 11.2124C24.8211 11.2124 26.4502 11.8832 27.6961 13.1291C28.9419 14.3749 29.6127 15.9082 29.6127 17.8249C29.6127 19.7416 28.9419 21.2749 27.6961 22.5207C26.4502 23.7666 24.8211 24.4374 23.0002 24.4374Z" fill="black" fill-opacity="0.2"/>
<path d="M23.0003 29.8999C18.4961 29.8999 14.2795 31.3374 10.7336 33.7332C13.7045 37.0874 18.1128 39.2916 23.0003 39.2916C27.8878 39.2916 32.2961 37.0874 35.267 33.7332C31.7211 31.3374 27.5045 29.8999 23.0003 29.8999Z" fill="black" fill-opacity="0.2"/>
</svg>
