<svg width="24" height="24" viewBox="0 0 24 24" fill="none" xmlns="http://www.w3.org/2000/svg">
<mask id="mask0_1_1354" style="mask-type:alpha" maskUnits="userSpaceOnUse" x="0" y="0" width="24" height="24">
<rect width="24" height="24" fill="#D9D9D9"/>
</mask>
<g mask="url(#mask0_1_1354)">
<path d="M5.1 20.25C4.15 19.3333 3.396 18.254 2.838 17.012C2.27933 15.7707 2 14.4333 2 13C2 11.6167 2.26267 10.3167 2.788 9.1C3.31267 7.88333 4.025 6.825 4.925 5.925C5.825 5.025 6.88333 4.31233 8.1 3.787C9.31667 3.26233 10.6167 3 12 3C13.3833 3 14.6833 3.26233 15.9 3.787C17.1167 4.31233 18.175 5.025 19.075 5.925C19.975 6.825 20.6873 7.88333 21.212 9.1C21.7373 10.3167 22 11.6167 22 13C22 14.4333 21.721 15.775 21.163 17.025C20.6043 18.275 19.85 19.35 18.9 20.25L17.5 18.85C18.2667 18.1167 18.875 17.246 19.325 16.238C19.775 15.2293 20 14.15 20 13C20 10.7667 19.225 8.875 17.675 7.325C16.125 5.775 14.2333 5 12 5C9.76667 5 7.875 5.775 6.325 7.325C4.775 8.875 4 10.7667 4 13C4 14.15 4.225 15.225 4.675 16.225C5.125 17.225 5.74167 18.0917 6.525 18.825L5.1 20.25ZM7.925 17.425C7.34167 16.875 6.875 16.221 6.525 15.463C6.175 14.7043 6 13.8833 6 13C6 11.3333 6.58333 9.91667 7.75 8.75C8.91667 7.58333 10.3333 7 12 7C13.6667 7 15.0833 7.58333 16.25 8.75C17.4167 9.91667 18 11.3333 18 13C18 13.8833 17.825 14.7083 17.475 15.475C17.125 16.2417 16.6583 16.8917 16.075 17.425L14.65 16C15.0667 15.6167 15.3957 15.1667 15.637 14.65C15.879 14.1333 16 13.5833 16 13C16 11.9 15.6083 10.9583 14.825 10.175C14.0417 9.39167 13.1 9 12 9C10.9 9 9.95833 9.39167 9.175 10.175C8.39167 10.9583 8 11.9 8 13C8 13.6 8.121 14.154 8.363 14.662C8.60433 15.1707 8.93333 15.6167 9.35 16L7.925 17.425ZM12 15C11.45 15 10.9793 14.804 10.588 14.412C10.196 14.0207 10 13.55 10 13C10 12.45 10.196 11.979 10.588 11.587C10.9793 11.1957 11.45 11 12 11C12.55 11 13.021 11.1957 13.413 11.587C13.8043 11.979 14 12.45 14 13C14 13.55 13.8043 14.0207 13.413 14.412C13.021 14.804 12.55 15 12 15Z" fill="black" fill-opacity="0.2"/>
</g>
</svg>
