<svg width="24" height="24" viewBox="0 0 24 24" fill="none" xmlns="http://www.w3.org/2000/svg">
<mask id="mask0_1_1266" style="mask-type:alpha" maskUnits="userSpaceOnUse" x="0" y="0" width="24" height="24">
<path d="M24 0H0V24H24V0Z" fill="#D9D9D9"/>
</mask>
<g mask="url(#mask0_1_1266)">
<path d="M21.4 8.4L21 8.8L19.8 10C19.9 10.6 20 11.3 20 12C20 14.1 19.2 16.1 17.7 17.6L16.7 18.5L17.2 19.7L17.3 19.9H12C9.8 19.9 7.9 19.1 6.4 17.7H6.3V17.6C4.9 16.1 4 14.2 4 12C4 7.6 7.6 4 12.1 4C12.7 4 13.4 4.1 14 4.2L15.2 3L15.5 2.7C14.5 2.2 13.3 2 12.1 2C6.5 2 2 6.5 2 12C2 17.5 6.5 22 12.1 22H20.4L19.1 19C20.9 17.2 22 14.7 22 12C22 10.7 21.8 9.5 21.4 8.4Z" fill="white" fill-opacity="0.4"/>
<path d="M8.29999 12.7V15.7H11.3L18.6 8.30002L15.7 5.40002L8.29999 12.7Z" fill="white"/>
<path d="M20.6 4.4L19.6 3.4C19.4 3.1 19 3 18.6 3C18.2 3 17.9 3.1 17.6 3.4L16.6 4.4L19.6 7.4L20.6 6.4C20.9 6.1 21 5.8 21 5.4C21 5 20.9 4.6 20.6 4.4Z" fill="white"/>
</g>
</svg>
